<svg xmlns="http://www.w3.org/2000/svg" xmlns:xlink="http://www.w3.org/1999/xlink" width="835.421" height="772.427" viewBox="0 0 835.421 772.427">
  <defs>
    <linearGradient id="linear-gradient" x1="0.576" y1="0.208" x2="0.412" y2="0.792" gradientUnits="objectBoundingBox">
      <stop offset="0" stop-color="#aa80f9"/>
      <stop offset="1" stop-color="#6165d7"/>
    </linearGradient>
    <linearGradient id="linear-gradient-2" x1="0.455" y1="-0.054" x2="0.656" y2="2.026" gradientUnits="objectBoundingBox">
      <stop offset="0" stop-color="#e38ddd"/>
      <stop offset="1" stop-color="#9571f6"/>
    </linearGradient>
    <clipPath id="clip-path">
      <path id="Path_826" data-name="Path 826" d="M833.691,2216.609q25.425-28.459,49.715-58.231c.536.035-26.583-48.748-63.943-55.03-73.173-11.5-77.226-73.234-87.744-103.04-13.5-43.1-47.33-73.746-80.093-47.284-36.9,28.617-90.941-27.874-127.679-89.625-16.06-31.665-66.51-44.251-97.166-31.169-31.806,12.693-43.821,51.052-9.535,112.267,36.942,73.179,110.674,74.383,151.511,92.459,40.125,17.711,21.888,74.34,73.389,76.725,44.326,3.319,89.982-5.8,101.928,34.851,11.356,40.572,33.393,63.1,89.613,68.077Z" transform="translate(-396.585 -1827.114)" fill="url(#linear-gradient)"/>
    </clipPath>
    <linearGradient id="linear-gradient-4" x1="1.962" y1="0.884" x2="-0.396" y2="0.254" gradientUnits="objectBoundingBox">
      <stop offset="0" stop-color="#311944"/>
      <stop offset="1" stop-color="#893976"/>
    </linearGradient>
    <linearGradient id="linear-gradient-5" x1="0.707" y1="0.204" x2="-0.293" y2="1.635" gradientUnits="objectBoundingBox">
      <stop offset="0" stop-color="#ffc444"/>
      <stop offset="1" stop-color="#f36f56"/>
    </linearGradient>
    <linearGradient id="linear-gradient-6" x1="0.761" y1="0.152" x2="0.453" y2="0.563" xlink:href="#linear-gradient-5"/>
    <linearGradient id="linear-gradient-7" x1="0.169" y1="-0.343" x2="0.648" y2="0.878" xlink:href="#linear-gradient-5"/>
    <linearGradient id="linear-gradient-8" x1="-0.122" y1="2.096" x2="0.853" y2="-0.405" gradientUnits="objectBoundingBox">
      <stop offset="0" stop-color="#ebeff2"/>
      <stop offset="1" stop-color="#fff"/>
    </linearGradient>
    <linearGradient id="linear-gradient-9" x1="0.77" y1="0.088" x2="-0.679" y2="2.118" xlink:href="#linear-gradient-5"/>
    <clipPath id="clip-path-2">
      <rect id="Rectangle_513" data-name="Rectangle 513" width="469.816" height="303.558" fill="none"/>
    </clipPath>
    <clipPath id="clip-path-3">
      <path id="Path_842" data-name="Path 842" d="M824.237,2630.146c3.3-3.762,7.17-14.856,6.986-18.163-1.224-22.012-.844-63.37-17.244-79.926-2.8-2.829-18.566,6.136-22.844,5.044-11.439,3.275-15.2,5.122-27.609,2.892-36.62-6.58-33.151-82.512-91.949-56.373-43.067,19.145-61.345,55.877-103.847.271S399.6,2369.367,376.436,2454.642c-13.292,48.94,58.182,65.127,70.779,112.385,11.969,44.907,47.852,58.968,97.541,48.5s44.648,19.552,61.135,57.729c19.8,45.858,80.222,3.889,106.463-17.866,21.13-17.521,86.756-47.875,111.878-25.246Z" transform="translate(-374.796 -2411.723)" fill="url(#linear-gradient-2)"/>
    </clipPath>
    <linearGradient id="linear-gradient-11" x1="0.533" y1="0.828" x2="0.308" y2="0.458" xlink:href="#linear-gradient-4"/>
  </defs>
  <g id="_4" data-name="4" transform="translate(-356.81 -517.271)" style="isolation: isolate">
    <g id="Illustration" transform="translate(356.81 454.998)">
      <path id="Path_818" data-name="Path 818" d="M833.691,2216.609q25.425-28.459,49.715-58.231c.536.035-26.583-48.748-63.943-55.03-73.173-11.5-77.226-73.234-87.744-103.04-13.5-43.1-47.33-73.746-80.093-47.284-36.9,28.617-90.941-27.874-127.679-89.625-16.06-31.665-66.51-44.251-97.166-31.169-31.806,12.693-43.821,51.052-9.535,112.267,36.942,73.179,110.674,74.383,151.511,92.459,40.125,17.711,21.888,74.34,73.389,76.725,44.326,3.319,89.982-5.8,101.928,34.851,11.356,40.572,33.393,63.1,89.613,68.077Z" transform="translate(-385.127 -1431.847)" fill="url(#linear-gradient)"/>
      <g id="Group_392" data-name="Group 392" transform="translate(11.458 395.267)" clip-path="url(#clip-path)">
        <path id="Path_819" data-name="Path 819" d="M922.986,2156.832c-.291-.392-88.965-76.682-189.1-139.432-15.443-10.78-31.368-21.375-46.768-31.619-85.765-57.055-166.77-110.945-203.943-215.011l-1.388.539c37.346,104.55,118.556,158.577,204.534,215.774,15.395,10.241,31.31,20.83,46.771,31.622,100.672,63.093,188.266,138.608,188.756,139.124l1.132-.994Z" transform="translate(-457.245 -1787.001)" fill="#beb8f2"/>
        <path id="Path_820" data-name="Path 820" d="M561.6,2245.7l.239-1.524c-40.448-6.937-93.344-20.629-121.759-27.983-23-5.952-23.043-5.906-23.558-5.318l.547.521.13.746c.979-.029,10.489,2.431,22.524,5.548C468.16,2225.048,521.09,2238.751,561.6,2245.7Z" transform="translate(-410.777 -2100.141)" fill="#beb8f2"/>
        <path id="Path_821" data-name="Path 821" d="M754.463,1954.347c-17.307-31.964-20.459-59.9-20.053-77.7.441-19.393,5.154-32.074,6.084-33.183l-.432-.395-.078-.968c-.444.037-.706.4-1.037,1.052-4.736,9.348-16.2,55.745,14.228,111.953l1.291-.758Z" transform="translate(-635.984 -1837.783)" fill="#beb8f2"/>
        <path id="Path_822" data-name="Path 822" d="M1442.116,2353.185l1.04-1.1c-49.9-51.193-53.57-134.745-52.827-168.291.04-1.8.049-2.385.011-2.653l-1.463.23.732-.115-.732.109c.023.193,0,1.213-.026,2.391a329.572,329.572,0,0,0,5.58,69.541c8.138,42.165,24.184,75.774,47.69,99.889Z" transform="translate(-1102.945 -2079.156)" fill="#beb8f2"/>
        <path id="Path_823" data-name="Path 823" d="M1111.7,2707.853l-.5-.559.251.717-.85-.262v-.922a.013.013,0,0,1,0-.009c.717-.749,51.294-38.348,104.025-18.8l-.5,1.455c-52.207-19.353-101.989,17.984-102.438,18.379Zm-.5-.567-.253-.723Z" transform="translate(-904.92 -2436.01)" fill="#beb8f2"/>
        <path id="Path_824" data-name="Path 824" d="M1907.212,2864.271c-9.221-11.143-20.309-34.013-20.779-79.675q-.026-2.59-.308-2.866l-1.011,1.126.507-.564-.712.187c.026.178.035,1.086.046,2.132.475,46.129,11.756,69.327,21.136,80.666l1.124-1.008Z" transform="translate(-1456.166 -2506.733)" fill="#beb8f2"/>
        <path id="Path_825" data-name="Path 825" d="M1681.064,2984.857l.853-1.262c-21.421-15.732-60.339-7.841-81.634-1.734-.674.193-1.109.32-1.273.354l.294,1.512c.176-.037.642-.17,1.371-.377,21.041-6.032,59.464-13.859,80.389,1.51Z" transform="translate(-1252.626 -2643.889)" fill="#beb8f2"/>
      </g>
      <path id="Path_827" data-name="Path 827" d="M2429.543,1383.456l3.6-7.936c1.351-2.976.55-6.548-1.795-7.988l-9.331-5.733a102.928,102.928,0,0,0,5.188-22.568l10.417-.732c2.685-.187,4.854-3,4.854-6.268v-8.708c0-3.275-2.169-5.8-4.854-5.652l-10.143.579a95.673,95.673,0,0,0-4.707-22.452l8.576-6.361a5.366,5.366,0,0,0,.755-.691l1.1,2.852,14.087-17.322-18.39-1.57a4.535,4.535,0,0,0-3.042-1.809,4.309,4.309,0,0,0-3.065.847l-8.472,6.156a77.626,77.626,0,0,0-13.983-16.757l.637-1.334,12.949,2.645,1.645-21.438-19.664-3.247c-2.261-.873-4.819.233-6.064,2.8l-4.888,10.08c-6.28-3.123-1.075-6.41-8.213-7.36l7.467-11c0-3.425-21.868-5.71-24.823-5.71h-7.907c-2.993,0-5.427,2.814-5.427,6.289v11.774a70.171,70.171,0,0,0-21.2,6.882l13.508-9.924s-23.792-4.505-26.5-2.719l-7.239,4.782a6.952,6.952,0,0,0-2.094,8.832l5.476,10.6c-5.995,5.338-8.544,8.417-13.081,15.464l-12.721-2.872c-2.809-1.725-6.415-.556-8.049,2.627l-4.359,8.49a6.8,6.8,0,0,0,2.175,8.893l10.255,6.147a102.876,102.876,0,0,0-5.6,25.028l-12.3.7c-3.313.19-6.006,3.3-6.006,6.96v9.717a5.916,5.916,0,0,0,5.1,6.173l13.98,2.241a93.094,93.094,0,0,0,5.718,20.583l-11.146,8.1a7.32,7.32,0,0,0-2.175,9.169l4.358,7.934c1.633,2.973,27.548,4.782,27.548,4.782l-8.228-11.54a74.7,74.7,0,0,0,15.547,15.565l-6.5,13.4c-1.584,3.267-.642,7.107,2.094,8.567l7.239,3.863a4.673,4.673,0,0,0,1.423.481l-.029.135,22.585,2.783,2.209-17.045a63.939,63.939,0,0,0,8,.723v14.582a5.49,5.49,0,0,0,3.29,5.361l-.1.426,22.377,2.794.447-27.649a73.8,73.8,0,0,0,11.811-5.747l5.966,11.543a4.5,4.5,0,0,0,3.281,2.5l21.626,2.93-7.406-20.381-2.99.916-4.929-9.665a92.327,92.327,0,0,0,13.718-17.451l9.65,5.785c2.368,1.42,5.387.138,6.747-2.858Zm-74.1-7.47c-21.17,1.887-38.731-16.691-38.731-41.534s17.561-45.628,38.731-46.4c20.649-.755,37.02,17.9,37.02,41.644S2376.094,1374.149,2355.445,1375.987Zm90.423-47.7,14.648-6.934-14.648-1.777Zm-17.981,59.184,16.76,2.261,2.446-5.715-13.882-8.441-5.321,11.892Z" transform="translate(-1710.542 -1004.452)" fill="#bfc8d6"/>
      <path id="Path_828" data-name="Path 828" d="M2515.134,1329.806l-10.085.582a95.384,95.384,0,0,0-4.681-22.386l8.527-6.346a6.852,6.852,0,0,0,1.783-8.193l-3.583-7.455c-1.351-2.812-4.353-3.708-6.709-1.991l-8.423,6.142a77.305,77.305,0,0,0-13.9-16.7l4.845-10.152c1.391-2.912.564-6.6-1.847-8.245l-6.45-4.4c-2.44-1.662-5.568-.642-6.986,2.29l-4.86,10.054a63.839,63.839,0,0,0-20.113-6.176v-11.609c0-3.425-2.374-6.2-5.312-6.2h-7.862c-2.976.006-5.4,2.814-5.4,6.277v11.739a69.654,69.654,0,0,0-21.081,6.873l-5.251-10.327a5.231,5.231,0,0,0-7.663-2.273l-7.2,4.773a6.95,6.95,0,0,0-2.083,8.809l5.445,10.564a90.6,90.6,0,0,0-15.8,18.632l-9.852-6.067c-2.794-1.72-6.378-.55-8,2.621l-4.333,8.466c-1.633,3.195-.665,7.17,2.164,8.867l10.2,6.125a102.953,102.953,0,0,0-5.569,24.958l-12.231.706c-3.293.19-5.972,3.3-5.972,6.943v9.688c0,3.644,2.679,6.407,5.972,6.173l12.557-.887a93.73,93.73,0,0,0,6.127,23.619l-11.082,8.08a7.317,7.317,0,0,0-2.164,9.143l4.333,7.911a5.258,5.258,0,0,0,8,1.593l11.206-8.34a74.248,74.248,0,0,0,15.458,15.513l-6.458,13.361c-1.576,3.258-.639,7.087,2.083,8.541l7.2,3.849c2.691,1.438,6.119-.023,7.663-3.258l6.4-13.41a63.454,63.454,0,0,0,19.932,3.771V1446.6c0,3.463,2.42,5.96,5.4,5.58l7.862-1.005c2.938-.377,5.312-3.457,5.312-6.882v-14.38a71.9,71.9,0,0,0,19.042-8.072l5.931,11.508a4.405,4.405,0,0,0,6.986,1.391l6.45-5.229a7.2,7.2,0,0,0,1.846-8.484l-5.755-11.315a92.39,92.39,0,0,0,13.64-17.405l9.6,5.764c2.356,1.414,5.358.135,6.709-2.852l3.584-7.916c1.342-2.967.547-6.531-1.783-7.965l-9.279-5.712a102.836,102.836,0,0,0,5.159-22.507l10.356-.732c2.67-.19,4.825-2.987,4.825-6.254v-8.682c0-3.264-2.158-5.787-4.825-5.632Zm-81.711,57.983c-21.049,1.89-38.509-16.627-38.509-41.4s17.46-45.5,38.509-46.284c20.531-.763,36.807,17.829,36.807,41.508S2453.954,1385.948,2433.423,1387.789Z" transform="translate(-1766.457 -1013.166)" fill="#fff"/>
      <path id="Path_829" data-name="Path 829" d="M1639.74,880.771l4.822-10.621c1.806-3.981.735-8.76-2.4-10.687l-12.482-7.668a137.433,137.433,0,0,0,6.94-30.2l13.934-.977c3.592-.251,6.493-4.007,6.493-8.386v-11.65c0-4.382-2.9-7.766-6.493-7.559l-13.568.775a128.008,128.008,0,0,0-6.3-30.04l11.474-8.51a7.322,7.322,0,0,0,1.011-.925l1.469,3.817,18.848-23.175-24.607-2.1a6.078,6.078,0,0,0-4.068-2.42,5.766,5.766,0,0,0-4.1,1.132l-11.333,8.236a103.757,103.757,0,0,0-18.707-22.418l.853-1.783,17.325,3.54,2.2-28.68-26.31-4.341c-3.025-1.167-6.447.311-8.112,3.745l-6.539,13.485c-8.4-4.177-1.44-8.576-10.99-9.849l9.987-14.709c0-4.583-29.256-7.637-33.209-7.637H1535.3c-4,0-7.259,3.768-7.259,8.415v15.752a93.782,93.782,0,0,0-28.366,9.21l18.071-13.277s-31.829-6.029-35.45-3.638l-9.685,6.4a9.3,9.3,0,0,0-2.8,11.817l7.326,14.176c-8.02,7.141-11.431,11.261-17.5,20.689l-17.019-3.843c-3.759-2.31-8.585-.743-10.768,3.514l-5.831,11.359c-2.2,4.286-.893,9.619,2.91,11.9l13.721,8.224a137.541,137.541,0,0,0-7.493,33.485l-16.46.942c-4.431.253-8.034,4.422-8.034,9.31v13c0,4.433,2.967,7.885,6.824,8.262l18.7,3a124.73,124.73,0,0,0,7.651,27.54l-14.913,10.837a9.8,9.8,0,0,0-2.91,12.269l5.831,10.615c2.184,3.978,36.856,6.4,36.856,6.4L1457.7,892.083a99.81,99.81,0,0,0,20.8,20.822l-8.691,17.924c-2.117,4.37-.861,9.506,2.8,11.459l9.685,5.168a6.309,6.309,0,0,0,1.9.645l-.037.181,30.216,3.725,2.956-22.807a85.993,85.993,0,0,0,10.708.968V949.68c0,3.468,1.815,6.214,4.4,7.173l-.133.57,29.936,3.736.6-36.991a98.949,98.949,0,0,0,15.8-7.689l7.98,15.443a6.023,6.023,0,0,0,4.39,3.342l28.931,3.921-9.91-27.269-4,1.227-6.594-12.929a123.678,123.678,0,0,0,18.353-23.348l12.911,7.74c3.169,1.9,7.208.184,9.025-3.823Zm-99.137-9.993c-28.326,2.523-51.818-22.331-51.818-55.569s23.492-61.045,51.818-62.079c27.626-1.011,49.528,23.945,49.528,55.713S1568.229,868.317,1540.6,870.778Zm120.976-63.825,19.6-9.279-19.6-2.38V806.95Zm-24.06,79.182,22.424,3.025,3.272-7.645-18.575-11.289Z" transform="translate(-1107.076 -608.897)" fill="#bfc8d6"/>
      <path id="Path_830" data-name="Path 830" d="M1754.25,808.935l-13.493.781a127.878,127.878,0,0,0-6.263-29.951l11.41-8.492c3.117-2.319,4.183-7.222,2.388-10.964l-4.793-9.976c-1.809-3.762-5.825-4.961-8.976-2.662l-11.269,8.219a103.384,103.384,0,0,0-18.6-22.346l6.484-13.583c1.861-3.9.758-8.829-2.472-11.03l-8.631-5.885c-3.264-2.224-7.45-.858-9.345,3.062l-6.5,13.45a85.41,85.41,0,0,0-26.909-8.265v-15.53c0-4.583-3.175-8.294-7.107-8.294l-10.52.006c-3.981,0-7.219,3.759-7.219,8.391v15.706a93.09,93.09,0,0,0-28.205,9.2l-7.026-13.816c-2.065-4.062-6.652-5.427-10.252-3.042l-9.63,6.387a9.3,9.3,0,0,0-2.786,11.785l7.282,14.133a121.166,121.166,0,0,0-21.139,24.927l-13.179-8.115c-3.736-2.3-8.533-.737-10.7,3.509l-5.8,11.327c-2.187,4.275-.887,9.59,2.892,11.863l13.643,8.2a137.6,137.6,0,0,0-7.45,33.39l-16.365.945c-4.4.253-7.988,4.413-7.988,9.287v12.963c0,4.874,3.584,8.573,7.988,8.262l16.8-1.19a125.379,125.379,0,0,0,8.2,31.6l-14.827,10.811A9.788,9.788,0,0,0,1531,906.226l5.8,10.581c2.172,3.967,6.969,4.914,10.7,2.132l14.994-11.157a99.364,99.364,0,0,0,20.683,20.756l-8.639,17.875c-2.106,4.359-.855,9.48,2.786,11.425l9.63,5.148c3.6,1.924,8.187-.032,10.253-4.359l8.564-17.941a84.858,84.858,0,0,0,26.667,5.044v19.453c0,4.632,3.238,7.974,7.219,7.464l10.52-1.348c3.929-.5,7.107-4.624,7.107-9.207V942.854a96.364,96.364,0,0,0,25.477-10.8l7.936,15.4c1.9,3.679,6.084,4.505,9.345,1.861l8.631-6.994a9.635,9.635,0,0,0,2.472-11.35l-7.7-15.141a123.191,123.191,0,0,0,18.246-23.288l12.839,7.712c3.151,1.893,7.167.179,8.976-3.814l4.794-10.592c1.8-3.97.732-8.737-2.388-10.656l-12.413-7.643a137.5,137.5,0,0,0,6.9-30.112l13.856-.979c3.572-.253,6.459-4,6.459-8.366V816.477c0-4.367-2.886-7.743-6.459-7.536Zm-109.323,77.578c-28.162,2.526-51.522-22.245-51.522-55.39s23.357-60.878,51.522-61.924c27.47-1.02,49.246,23.852,49.246,55.534s-21.775,59.314-49.246,61.78Z" transform="translate(-1181.878 -620.501)" fill="#fff"/>
      <path id="Path_831" data-name="Path 831" d="M1174.89,1378.811c.3,134.293-71.084,243.884-198.21,247.491-1.965.055-34.407-.006-36.386,0-129.863.317-235.383-109.977-235.686-246.344S809.339,1132.783,939.2,1132.469c3.036-.009,31.544.274,34.551.386,125.671,4.7,200.838,112.777,201.131,245.958Z" transform="translate(-604.417 -937.309)" fill="url(#linear-gradient-4)"/>
      <ellipse id="Ellipse_149" data-name="Ellipse 149" cx="235.141" cy="246.917" rx="235.141" ry="246.917" transform="translate(144.154 197.367)" fill="url(#linear-gradient-5)"/>
      <ellipse id="Ellipse_150" data-name="Ellipse 150" cx="229.216" cy="240.695" rx="229.216" ry="240.695" transform="translate(150.079 203.589)" opacity="0.3" fill="url(#linear-gradient-6)" style="mix-blend-mode: multiply;isolation: isolate"/>
      <ellipse id="Ellipse_151" data-name="Ellipse 151" cx="222.296" cy="233.43" rx="222.296" ry="233.43" transform="translate(156.999 210.854)" fill="url(#linear-gradient-7)"/>
      <ellipse id="Ellipse_152" data-name="Ellipse 152" cx="217.543" cy="228.441" rx="217.543" ry="228.441" transform="translate(156.999 215.844)" fill="url(#linear-gradient-8)"/>
      <path id="Path_832" data-name="Path 832" d="M1736.72,1515.658l165.713,64.26a201.54,201.54,0,0,0,8.305-57.482c0-103.086-77.076-187.27-174.015-192.466v185.688Z" transform="translate(-1339.207 -1077.916)" fill="url(#linear-gradient-9)"/>
      <g id="Group_393" data-name="Group 393" transform="translate(144.153 207.254)" opacity="0.54" style="mix-blend-mode: multiply;isolation: isolate">
        <path id="Path_833" data-name="Path 833" d="M1032.985,1406.3c-17.2-55.719,45-95.928,35.188-160.871-4.327-28.657-21.167-52.138-41.877-70.975-97.9,30.037-169.326,125.115-169.078,237.6.3,136.367,105.82,246.661,235.686,246.344a224.789,224.789,0,0,0,89.852-18.923c-4.01-78.811-28.185-123.326-53.892-150.148-39.621-41.335-82.763-40.543-95.879-83.031Z" transform="translate(-857.218 -1174.45)" fill="#d8dee8"/>
      </g>
      <ellipse id="Ellipse_153" data-name="Ellipse 153" cx="13.83" cy="14.525" rx="13.83" ry="14.525" transform="translate(360.101 433.335)" fill="#ba5079"/>
      <path id="Path_834" data-name="Path 834" d="M1633.26,1607.88a8.967,8.967,0,0,0-8.74,9.178v97.907a8.751,8.751,0,1,0,17.48,0v-97.907A8.967,8.967,0,0,0,1633.26,1607.88Z" transform="translate(-1259.329 -1275.768)" fill="#ba5079"/>
      <path id="Path_835" data-name="Path 835" d="M1258.147,1890.579l-156.607-46.042a5.558,5.558,0,0,0-6.775,3.419,4.941,4.941,0,0,0,3.224,6.47l156.607,46.042a5.558,5.558,0,0,0,6.776-3.419,4.941,4.941,0,0,0-3.224-6.47Z" transform="translate(-881.958 -1444.091)" fill="#ba5079"/>
      <g id="Group_395" data-name="Group 395" transform="translate(0 478.81)" clip-path="url(#clip-path-2)">
        <path id="Path_836" data-name="Path 836" d="M824.237,2630.146c3.3-3.762,7.17-14.856,6.986-18.163-1.224-22.012-.844-63.37-17.244-79.926-2.8-2.829-18.566,6.136-22.844,5.044-11.439,3.275-15.2,5.122-27.609,2.892-36.62-6.58-33.151-82.512-91.949-56.373-43.067,19.145-61.345,55.877-103.847.271S399.6,2369.367,376.436,2454.642c-13.292,48.94,58.182,65.127,70.779,112.385,11.969,44.907,47.852,58.968,97.541,48.5s44.648,19.552,61.135,57.729c19.8,45.858,80.222,3.889,106.463-17.866,21.13-17.521,86.756-47.875,111.878-25.246Z" transform="translate(-369.615 -2326.856)" fill="url(#linear-gradient-2)"/>
        <g id="Group_394" data-name="Group 394" transform="translate(5.181 84.867)" clip-path="url(#clip-path-3)">
          <path id="Path_837" data-name="Path 837" d="M827.442,2608.526l-.282-1.026c-158.062,43.464-324.78-11.56-445.975-147.19l-.8.708c57.439,64.277,127.84,112.2,203.594,138.58,79.64,27.736,163.826,30.823,243.458,8.924Z" transform="translate(-378.778 -2446.313)" fill="#fcfdfe"/>
          <path id="Path_838" data-name="Path 838" d="M1195.739,3125.7c22.743-38.642,75.976-86.01,118.668-105.593l-.444-.968c-42.859,19.658-96.305,67.219-119.143,106.019l.916.542Z" transform="translate(-958.594 -2844.16)" fill="#fcfdfe"/>
          <path id="Path_839" data-name="Path 839" d="M1543.756,2731.865l.012-1.063c-24.411-.305-47.734-12.94-69.313-37.553-15.824-18.048-30.363-42-43.211-71.18l-.974.429c12.891,29.282,27.488,53.325,43.384,71.453,21.79,24.849,45.374,37.608,70.1,37.916Z" transform="translate(-1126.218 -2561.475)" fill="#fcfdfe"/>
          <path id="Path_840" data-name="Path 840" d="M768.076,2926.176l.069-1.063c-45.988-2.941-87.525,22.011-114.275,43.458l.665.83c26.6-21.332,67.9-46.146,113.54-43.228Z" transform="translate(-573.477 -2777.051)" fill="#fcfdfe"/>
          <path id="Path_841" data-name="Path 841" d="M609.295,2466.445l.746-.76c-37.029-36.383-44.812-90.316-46.158-119.224l-1.063.049C564.174,2375.575,572.01,2429.8,609.295,2466.445Z" transform="translate(-508.656 -2365.26)" fill="#fcfdfe"/>
        </g>
      </g>
      <path id="Path_843" data-name="Path 843" d="M2779.58,1548.2l-19.5-131.626-43.583,4.384c-3.676-.683-10.667,3.143-12.321,7l-57.231,133.363c-1.772,4.137.948,8.884,5.067,8.855l16.342-.686v310.858c0,5.54,4.024,9.515,8.97,8.884l39.178,8.708c4.687-.6,48.557-24.241,48.557-29.582v-311.61l9.907-.052c3.757-.02,6.225-4.569,4.618-8.5Z" transform="translate(-1986.834 -1139.569)" fill="#6a1b39"/>
      <path id="Path_844" data-name="Path 844" d="M2765.838,1942.54l-43.228,1.4V2254.8c0,5.54,4.024,9.515,8.97,8.884l39.178,8.708c1.927-.248,10.523-4.413,19.952-9.593l-24.872-320.255Z" transform="translate(-2041.091 -1514.022)" opacity="0.3" fill="url(#linear-gradient-11)" style="mix-blend-mode: multiply;isolation: isolate"/>
      <path id="Path_845" data-name="Path 845" d="M2942.84,1558.138,2886.2,1419.13c-1.91-4.687-7.648-4.981-9.57-.472l-59.608,139.885c-1.754,4.114.936,8.835,5.012,8.809l10.63-.069v321.557c0,5.511,3.984,9.466,8.884,8.832l78.586-10.163c4.6-.6,8.319-5.384,8.319-10.7V1566.665l9.815-.063c3.722-.023,6.167-4.554,4.574-8.464Z" transform="translate(-2107.917 -1138.764)" fill="#ce7899"/>
      <path id="Path_846" data-name="Path 846" d="M2329.468,2442.338l-40.929-9.509c-5.151.657-9.339-3.272-9.339-8.78V2170.125c0-5.508,4.188-10.1,9.339-10.25l87.764-2.581c4.819-.141,45.639,2.169,45.639,2.169L2385.02,2410.91c0,5.3-55.549,31.432-55.549,31.432Z" transform="translate(-1725.414 -1666.907)" fill="#6a1b39"/>
      <path id="Path_847" data-name="Path 847" d="M2529.673,2435.69l-86.923,11.24c-5.1.66-9.25-3.247-9.25-8.729V2176.829c0-5.482,4.148-10.051,9.25-10.2l86.923-2.587c4.773-.141,8.634,4.021,8.634,9.3V2425.02c0,5.278-3.857,10.057-8.634,10.673Z" transform="translate(-1835.265 -1671.713)" fill="#ce7899"/>
      <path id="Path_848" data-name="Path 848" d="M1845.536,2681.121l-43.165-9.521a8.939,8.939,0,0,1-10.281-9.152l1.3-177.927a11.162,11.162,0,0,1,10.278-11.076l96.42-5.753c5.286-.314,49.643,5.793,49.643,5.793l-41.356,174.522C1908.382,2653.561,1850.888,2680.429,1845.536,2681.121Z" transform="translate(-1378.627 -1887.884)" fill="#6a1b39"/>
      <path id="Path_849" data-name="Path 849" d="M2056.818,2677.9l-95.507,12.35a8.857,8.857,0,0,1-10.18-9.1v-183.6a11.094,11.094,0,0,1,10.18-11.03l95.507-5.764c5.237-.317,9.469,3.909,9.469,9.437V2666.66c0,5.528-4.232,10.558-9.469,11.235Z" transform="translate(-1491.852 -1897.183)" fill="#ce7899"/>
      <path id="Path_850" data-name="Path 850" d="M1306.282,2946.118l-40.4-8.04c-6.271.8-11.373-3.477-11.373-9.555v-92.454c0-6.078,5.1-11.468,11.373-12.033l106.483-9.587c5.828-.524,46.175,4.2,46.175,4.2l-35.637,93.931c0,5.831-70.713,32.777-76.624,33.54Z" transform="translate(-995.908 -2134.73)" fill="#6a1b39"/>
      <path id="Path_851" data-name="Path 851" d="M1535.542,2944.218l-105.431,13.635c-6.208.8-11.261-3.448-11.261-9.5v-97.777a12.43,12.43,0,0,1,11.261-11.978l105.431-9.587a9.4,9.4,0,0,1,10.434,9.558v93.79A12.28,12.28,0,0,1,1535.542,2944.218Z" transform="translate(-1112.907 -2145.096)" fill="#ce7899"/>
      <path id="Path_852" data-name="Path 852" d="M788.992,3006.235l-118.175,12.2a14.514,14.514,0,0,0-11.425,7.841,11.524,11.524,0,0,0-1.221,5.073v50.8c0,6.413,5.427,11.664,12.646,14.222l41.759,8.3c6.559-.847,88.087-29.853,88.087-35.989l19.583-23.559,19.822-33.566s-44.622-6-51.078-5.329Z" transform="translate(-571.357 -2271.258)" fill="#6a1b39"/>
      <path id="Path_853" data-name="Path 853" d="M958,3104.724l-116.986,15.13c-6.9.893-12.52-3.552-12.52-9.933V3050.99c0-6.378,5.617-12.136,12.52-12.856L958,3025.925c6.392-.668,11.555,3.745,11.555,9.849v56.4c0,6.1-5.162,11.722-11.555,12.549Z" transform="translate(-692.613 -2285.267)" fill="#ce7899"/>
    </g>
  </g>
</svg>
